name C:\Users\antoi\Documents\MyRepositories\predictsim_mtp\Results\Case_40\GRF.mot
datacolumns 19
datarows 27
range 0.00000000 0.14464691
endheader 
time	r_ground_force_vx	r_ground_force_vy	r_ground_force_vz	r_ground_force_px	r_ground_force_py	r_ground_force_pz	l_ground_force_vx	l_ground_force_vy	l_ground_force_vz	l_ground_force_px	l_ground_force_py	l_ground_force_pz	r_ground_torque_x	r_ground_torque_y	r_ground_torque_z	l_ground_torque_x	l_ground_torque_y	l_ground_torque_z	
          0.00000000	        -51.91890925	         48.54075780	         18.91333871	          0.20780674	          0.00000000	          0.04227542	         79.13879573	        457.60017569	          6.16068960	         -0.30979818	          0.00000000	         -0.05832645	          0.00000000	         -0.00000014	          0.00000000	          0.00000000	         -3.01546040	          0.00000000	
          0.00556334	        -84.41693941	         99.25403895	         47.77991098	          0.21019854	          0.00000000	          0.04178746	         73.78572084	        429.32097485	          4.84994555	         -0.30618560	          0.00000000	         -0.05932914	          0.00000000	         -0.00000074	          0.00000000	          0.00000000	         -2.87821899	          0.00000000	
          0.01112669	        -42.88272714	        175.01597388	         49.84689515	          0.21290826	          0.00000000	          0.04089563	         68.85353736	        399.65238937	          2.82952259	         -0.30239180	          0.00000000	         -0.06030894	          0.00000000	         -0.00003982	          0.00000000	          0.00000000	         -2.73004698	          0.00000000	
          0.01669003	        -30.56679128	        264.61303282	         20.49982378	          0.21395791	          0.00000000	          0.03986011	         65.04285065	        369.90837236	          0.96018276	         -0.29862625	          0.00000000	         -0.06138254	          0.00000000	         -0.00025219	          0.00000000	          0.00000000	         -2.48613160	          0.00000000	
          0.02225337	        -34.72815753	        354.19732198	          2.09185246	          0.21449504	          0.00000000	          0.03934986	         60.48878908	        342.76532625	         -0.43632252	         -0.29528863	          0.00000000	         -0.06242442	          0.00000000	         -0.00162656	          0.00000000	          0.00000000	         -2.19403238	          0.00000000	
          0.02781671	        -43.52655076	        434.78829221	         -5.42628424	          0.21493870	          0.00000000	          0.03915268	         56.27862376	        319.71458273	         -1.52341622	         -0.29309666	          0.00000000	         -0.06319974	          0.00000000	         -0.00889152	          0.00000000	          0.00000000	         -1.94807087	          0.00000000	
          0.03338006	        -55.26610690	        502.07186211	         -8.53866051	          0.21542153	          0.00000000	          0.03910791	         53.08036745	        300.86404444	         -4.66569240	         -0.29259720	          0.00000000	         -0.06260555	          0.00000000	         -0.03843654	          0.00000000	          0.00000000	         -1.83111079	          0.00000000	
          0.03894340	        -66.43486647	        555.87004453	         -9.94930196	          0.21614894	          0.00000000	          0.03920983	         51.07828980	        279.93875302	         -8.05242799	         -0.29200313	          0.00000000	         -0.06187181	          0.00000000	         -0.12014115	          0.00000000	          0.00000000	         -1.68676508	          0.00000000	
          0.04450674	        -73.23270685	        596.25795616	        -10.32803180	          0.21715319	          0.00000000	          0.03943015	         48.54872942	        256.87858204	        -11.15207329	         -0.29129587	          0.00000000	         -0.06102458	          0.00000000	         -0.24711688	          0.00000000	          0.00000000	         -1.51638011	          0.00000000	
          0.05007008	        -79.07430944	        626.49274645	        -10.28412412	          0.21861909	          0.00000000	          0.03986382	         45.49248377	        231.98738537	        -13.26421899	         -0.29046648	          0.00000000	         -0.05997877	          0.00000000	         -0.46235870	          0.00000000	          0.00000000	         -1.32799799	          0.00000000	
          0.05563343	        -87.70541662	        659.71530824	        -10.77248118	          0.22132084	          0.00000000	          0.04085820	         42.17989129	        205.81681875	        -14.96828747	         -0.28949401	          0.00000000	         -0.05871139	          0.00000000	         -0.88426774	          0.00000000	          0.00000000	         -1.13153868	          0.00000000	
          0.06119677	        -94.35772826	        689.85151197	        -11.96097814	          0.22442509	          0.00000000	          0.04201959	         38.20576862	        179.43156645	        -16.69464423	         -0.28839819	          0.00000000	         -0.05726035	          0.00000000	         -1.28637233	          0.00000000	          0.00000000	         -0.93617481	          0.00000000	
          0.06676011	        -97.79812989	        709.72895970	        -13.06577657	          0.22729711	          0.00000000	          0.04306282	         32.69101457	        152.78243539	        -18.16507148	         -0.28719768	          0.00000000	         -0.05557131	          0.00000000	         -1.56232347	          0.00000000	          0.00000000	         -0.74361145	          0.00000000	
          0.07232346	        -98.63743599	        720.26095021	        -13.82170136	          0.22987915	          0.00000000	          0.04392553	         25.91925459	        125.55329675	        -19.12833070	         -0.28585366	          0.00000000	         -0.05352326	          0.00000000	         -1.74449604	          0.00000000	          0.00000000	         -0.55305292	          0.00000000	
          0.07788680	        -97.81220440	        724.24127141	        -14.19404889	          0.23230368	          0.00000000	          0.04459700	         17.73228831	         98.53799858	        -18.83136130	         -0.28435304	          0.00000000	         -0.05091285	          0.00000000	         -1.90006470	          0.00000000	          0.00000000	         -0.37884665	          0.00000000	
          0.08345014	        -96.02924480	        725.12822375	        -14.36873345	          0.23470493	          0.00000000	          0.04508124	          8.02183108	         71.65946422	        -16.40344647	         -0.28257724	          0.00000000	         -0.04698986	          0.00000000	         -2.06937327	          0.00000000	          0.00000000	         -0.22864655	          0.00000000	
          0.08901348	        -93.33169057	        724.37748743	        -14.68018004	          0.23705684	          0.00000000	          0.04542274	         -1.47434619	         44.90066207	        -11.73822379	         -0.28005854	          0.00000000	         -0.03971090	          0.00000000	         -2.26561180	          0.00000000	          0.00000000	         -0.10459625	          0.00000000	
          0.09457683	        -89.54840480	        722.85738508	        -14.46078245	          0.23940034	          0.00000000	          0.04565995	          0.00000000	          0.00000000	          0.00000000	          0.00000000	          0.00000000	          0.00000000	          0.00000000	         -2.48895441	          0.00000000	          0.00000000	          0.00000000	          0.00000000	
          0.10014017	        -86.06383846	        722.38853414	        -14.54287864	          0.24223235	          0.00000000	          0.04563091	          0.00000000	          0.00000000	          0.00000000	          0.00000000	          0.00000000	          0.00000000	          0.00000000	         -2.82014280	          0.00000000	          0.00000000	          0.00000000	          0.00000000	
          0.10570351	        -83.04613745	        721.35535344	        -14.65977731	          0.24552867	          0.00000000	          0.04530343	          0.00000000	          0.00000000	          0.00000000	          0.00000000	          0.00000000	          0.00000000	          0.00000000	         -3.24931619	          0.00000000	          0.00000000	          0.00000000	          0.00000000	
          0.11126686	        -79.50261949	        716.37261961	        -14.66372011	          0.24887240	          0.00000000	          0.04486776	          0.00000000	          0.00000000	          0.00000000	          0.00000000	          0.00000000	          0.00000000	          0.00000000	         -3.66852110	          0.00000000	          0.00000000	          0.00000000	          0.00000000	
          0.11683020	        -75.46593396	        707.41150532	        -14.38163456	          0.25207251	          0.00000000	          0.04445897	          0.00000000	          0.00000000	          0.00000000	          0.00000000	          0.00000000	          0.00000000	          0.00000000	         -4.05462106	          0.00000000	          0.00000000	          0.00000000	          0.00000000	
          0.12239354	        -71.14142830	        695.76258762	        -14.12366757	          0.25510908	          0.00000000	          0.04411724	          0.00000000	          0.00000000	          0.00000000	          0.00000000	          0.00000000	          0.00000000	          0.00000000	         -4.40591142	          0.00000000	          0.00000000	          0.00000000	          0.00000000	
          0.12795688	        -66.68512990	        682.57722054	        -13.91109669	          0.25799750	          0.00000000	          0.04384358	          0.00000000	          0.00000000	          0.00000000	          0.00000000	          0.00000000	          0.00000000	          0.00000000	         -4.72517241	          0.00000000	          0.00000000	          0.00000000	          0.00000000	
          0.13352023	        -62.22899129	        668.73183084	        -13.72591122	          0.26075617	          0.00000000	          0.04362555	          0.00000000	          0.00000000	          0.00000000	          0.00000000	          0.00000000	          0.00000000	          0.00000000	         -5.00738212	          0.00000000	          0.00000000	          0.00000000	          0.00000000	
          0.13908357	        -57.83717515	        654.77206006	        -13.72085598	          0.26340485	          0.00000000	          0.04344692	          0.00000000	          0.00000000	          0.00000000	          0.00000000	          0.00000000	          0.00000000	          0.00000000	         -5.24808759	          0.00000000	          0.00000000	          0.00000000	          0.00000000	
          0.14464691	        -53.59733234	        641.04199882	        -13.85582932	          0.26596187	          0.00000000	          0.04329840	          0.00000000	          0.00000000	          0.00000000	          0.00000000	          0.00000000	          0.00000000	          0.00000000	         -5.44494278	          0.00000000	          0.00000000	          0.00000000	          0.00000000	
